<?xml version="1.0" encoding="UTF-8" standalone="no"?>
<!-- Created with Inkscape (http://www.inkscape.org/) -->

<svg
   width="30.48mm"
   height="128.5mm"
   viewBox="0 0 30.48 128.5"
   version="1.1"
   id="svg242"
   inkscape:version="1.1.2 (0a00cf5339, 2022-02-04)"
   sodipodi:docname="thierry_module.svg"
   xmlns:inkscape="http://www.inkscape.org/namespaces/inkscape"
   xmlns:sodipodi="http://sodipodi.sourceforge.net/DTD/sodipodi-0.dtd"
   xmlns="http://www.w3.org/2000/svg"
   xmlns:svg="http://www.w3.org/2000/svg">
  <sodipodi:namedview
     id="namedview244"
     pagecolor="#ffffff"
     bordercolor="#666666"
     borderopacity="1.0"
     inkscape:pageshadow="2"
     inkscape:pageopacity="0.0"
     inkscape:pagecheckerboard="true"
     inkscape:document-units="mm"
     showgrid="true"
     inkscape:zoom="2"
     inkscape:cx="24.75"
     inkscape:cy="158.5"
     inkscape:window-width="1920"
     inkscape:window-height="1008"
     inkscape:window-x="0"
     inkscape:window-y="0"
     inkscape:window-maximized="1"
     inkscape:current-layer="layer2">
    <inkscape:grid
       type="xygrid"
       id="grid290"
       units="mm"
       spacingx="0.050800001"
       spacingy="2.5700001"
       empspacing="5" />
  </sodipodi:namedview>
  <defs
     id="defs239" />
  <g
     inkscape:label="Calque 1"
     inkscape:groupmode="layer"
     id="layer1"
     style="display:inline">
    <rect
       style="fill:#e9c6af;stroke-width:0.316237"
       id="rect292"
       width="30.48"
       height="128.5"
       x="0"
       y="0" />
    <rect
       style="fill:#1a1a1a;stroke-width:0.273869"
       id="rect418"
       width="26.416"
       height="38.549995"
       x="2.0320001"
       y="87.380005" />
    <g
       aria-label="C4"
       id="text10101"
       style="font-size:3.52777px;line-height:1.25;font-family:'FiraCode Nerd Font Mono';-inkscape-font-specification:'FiraCode Nerd Font Mono';stroke-width:0.264583">
      <path
         d="m 14.516507,90.574459 q 0.24423,0 0.408859,0.06151 0.164629,0.06151 0.312977,0.180911 l -0.175484,0.20443 q -0.117593,-0.0995 -0.249658,-0.141111 -0.130256,-0.04342 -0.273176,-0.04342 -0.20443,0 -0.378104,0.09769 -0.173675,0.09588 -0.280413,0.320213 -0.104928,0.222521 -0.104928,0.604244 0,0.370868 0.0995,0.595198 0.10131,0.22433 0.273176,0.323831 0.171865,0.0995 0.383532,0.0995 0.208048,0 0.343731,-0.06332 0.137493,-0.06332 0.235185,-0.144729 l 0.16282,0.206238 Q 15.16055,92.986 14.977829,93.06741 q -0.18272,0.0796 -0.44866,0.0796 -0.303931,0 -0.548161,-0.146538 -0.24423,-0.148347 -0.38715,-0.435996 -0.14292,-0.287649 -0.14292,-0.705554 0,-0.419714 0.144729,-0.705554 0.146538,-0.287649 0.388959,-0.432378 0.242422,-0.146538 0.53188,-0.146538 z"
         style="fill:#f2f2f2"
         id="path35420" />
      <path
         d="m 16.982322,91.549571 v 0.707363 h 0.322022 v 0.242421 h -0.322022 v 0.606053 h -0.293076 l -0.0018,-0.606053 h -1.034813 v -0.220712 l 0.730882,-1.704184 0.253276,0.106738 -0.662136,1.575737 h 0.7146 l 0.0398,-0.707363 z"
         style="fill:#f2f2f2"
         id="path35422" />
    </g>
    <g
       aria-label="quinte"
       id="text15019"
       style="font-size:3.52777px;line-height:1.25;font-family:'FiraCode Nerd Font';-inkscape-font-specification:'FiraCode Nerd Font';fill:#ececec;stroke-width:0.264583">
      <path
         d="m 9.213352,109.07033 q 0.1718657,0 0.3021218,0.0633 0.1320653,0.0633 0.2297574,0.18453 l 0.025328,-0.20804 h 0.2587028 v 2.67206 l -0.3039307,-0.038 v -0.96968 q -0.1049285,0.14654 -0.2424211,0.21528 -0.1374926,0.0669 -0.2930763,0.0669 -0.256894,0 -0.4106686,-0.12302 -0.1537746,-0.12302 -0.2225209,-0.34554 -0.068746,-0.22433 -0.068746,-0.52283 0,-0.28584 0.083219,-0.51017 0.083219,-0.22614 0.2442303,-0.35459 0.1628201,-0.13025 0.3980048,-0.13025 z m 0.075983,0.24423 q -0.4757966,0 -0.4757966,0.75078 0,0.73812 0.4396144,0.73812 0.1573928,0 0.2749851,-0.0868 0.1194015,-0.0887 0.1971933,-0.20624 v -0.95159 q -0.074174,-0.11579 -0.1881477,-0.17911 -0.1139741,-0.0651 -0.2478485,-0.0651 z"
         id="path35425" />
      <path
         d="m 11.060451,109.11013 v 1.34959 q 0,0.18815 0.07779,0.27137 0.07779,0.0832 0.242421,0.0832 0.157393,0 0.296694,-0.0887 0.141111,-0.0905 0.218903,-0.21347 v -1.40206 h 0.303931 v 1.90499 h -0.258703 l -0.02533,-0.25689 q -0.112165,0.14473 -0.278603,0.22252 -0.164629,0.076 -0.331068,0.076 -0.276794,0 -0.414287,-0.14654 -0.135683,-0.14834 -0.135683,-0.41428 v -1.38578 z"
         id="path35427" />
      <path
         d="m 13.649286,108.21823 q 0.10131,0 0.161011,0.0615 0.06151,0.0615 0.06151,0.15016 0,0.0923 -0.06151,0.15558 -0.0597,0.0615 -0.161011,0.0615 -0.09588,0 -0.157393,-0.0615 -0.06151,-0.0633 -0.06151,-0.15558 0,-0.0887 0.06151,-0.15016 0.06151,-0.0615 0.157393,-0.0615 z m 0.242421,0.8919 v 1.66438 h 0.537307 v 0.24061 h -1.429199 v -0.24061 h 0.587961 v -1.42377 h -0.56987 v -0.24061 z"
         id="path35429" />
      <path
         d="m 15.098381,111.01512 v -1.90499 h 0.258703 l 0.02352,0.26413 q 0.115783,-0.14654 0.289458,-0.22433 0.173675,-0.0796 0.340113,-0.0796 0.280413,0 0.407051,0.14834 0.128447,0.14835 0.128447,0.41248 v 1.38397 H 16.24174 v -1.15964 q 0,-0.19538 -0.02171,-0.31479 -0.02171,-0.1194 -0.09226,-0.17548 -0.06875,-0.0561 -0.211666,-0.0561 -0.112165,0 -0.211667,0.0488 -0.09769,0.0489 -0.175484,0.12302 -0.07598,0.0724 -0.126638,0.14654 v 1.38759 z"
         id="path35431" />
      <path
         d="m 18.781729,110.91924 q -0.09769,0.0651 -0.236994,0.10131 -0.139302,0.0362 -0.273176,0.0362 -0.307549,0 -0.473988,-0.16101 -0.166438,-0.16101 -0.166438,-0.41429 v -1.13612 h -0.437805 v -0.23518 h 0.437805 v -0.43238 l 0.303931,-0.0362 v 0.46856 h 0.658517 l -0.03618,0.23518 h -0.622335 v 1.1325 q 0,0.15921 0.08322,0.24243 0.08503,0.0832 0.280413,0.0832 0.106737,0 0.197193,-0.0253 0.09046,-0.0253 0.168247,-0.0651 z"
         id="path35433" />
      <path
         d="m 19.679043,110.17027 q 0.01266,0.33106 0.173675,0.48303 0.16282,0.15016 0.383532,0.15016 0.146538,0 0.26413,-0.0434 0.117593,-0.0434 0.244231,-0.12845 l 0.14292,0.20081 q -0.132066,0.10493 -0.303931,0.16463 -0.171866,0.0597 -0.350968,0.0597 -0.278604,0 -0.473988,-0.12483 -0.193575,-0.12483 -0.296694,-0.34735 -0.101311,-0.22433 -0.101311,-0.51921 0,-0.28946 0.101311,-0.51379 0.103119,-0.22433 0.289458,-0.35278 0.188147,-0.12844 0.441423,-0.12844 0.360014,0 0.566253,0.24965 0.208048,0.24966 0.208048,0.68385 0,0.0488 -0.0036,0.0923 -0.0018,0.0434 -0.0036,0.0742 z m 0.517407,-0.85029 q -0.211667,0 -0.354587,0.15016 -0.14292,0.15016 -0.161011,0.46494 h 0.993203 q -0.0054,-0.30574 -0.133874,-0.45951 -0.128447,-0.15559 -0.343731,-0.15559 z"
         id="path35435" />
    </g>
    <g
       aria-label="THIERRY"
       id="text18339"
       style="font-size:7.05556px;line-height:1.25;font-family:Uroob;-inkscape-font-specification:Uroob;stroke-width:0.264583">
      <path
         d="m 8.1042882,2.9440394 q 0.1550294,0 0.1757,0.1722548 V 3.5124805 H 7.2602393 V 7.3468742 H 6.6297864 V 3.5124805 H 5.6100375 V 3.1162942 q 0,-0.075792 0.051677,-0.1240235 0.055122,-0.048231 0.1274686,-0.048231 z"
         id="path35438" />
      <path
         d="M 11.256553,7.3468742 H 10.622655 V 5.3831685 H 9.2652862 V 7.3468742 H 8.6313883 v -4.23058 q 0,-0.068902 0.051676,-0.1205784 0.051677,-0.051676 0.1205785,-0.051676 h 0.461643 V 4.835398 H 10.622655 V 2.9440394 h 0.461643 q 0.0689,0 0.120578,0.051676 0.05168,0.051676 0.05168,0.1205784 z"
         id="path35440" />
      <path
         d="m 12.20051,7.3468742 h -0.633898 v -4.23058 q 0,-0.068902 0.05168,-0.1205784 0.05168,-0.051676 0.120578,-0.051676 h 0.289389 q 0.0689,0 0.120578,0.051676 0.05168,0.051676 0.05168,0.1205784 z"
         id="path35442" />
      <path
         d="m 14.867015,7.3468742 h -1.488282 q -0.320394,0 -0.578776,-0.2032607 Q 12.538129,6.9403527 12.538129,6.6268488 V 3.6606197 q 0,-0.3135039 0.261828,-0.5202098 0.261827,-0.2067058 0.578776,-0.2067058 h 1.488282 v 0.5443254 h -1.446941 q -0.134359,0 -0.19637,0.086127 -0.06201,0.086127 -0.06201,0.2101509 v 1.0645352 h 1.564074 v 0.5305451 h -1.564074 v 1.1437724 q 0,0.1240235 0.06201,0.210151 0.06201,0.086127 0.19637,0.086127 h 1.446941 z"
         id="path35444" />
      <path
         d="M 17.884921,7.3606546 H 17.237243 L 16.324292,5.4520705 H 15.831643 V 7.3606546 H 15.204635 V 2.9440394 h 1.701878 q 0.33762,0 0.578777,0.2239313 0.241157,0.2239314 0.241157,0.5615509 V 4.763051 q 0,0.4892038 -0.420302,0.6407881 -0.130914,0.048231 -0.289389,0.048231 z M 17.102884,4.6149118 V 3.8432099 q 0,-0.2308216 -0.179145,-0.3341745 -0.05512,-0.034451 -0.127469,-0.031006 h -0.964627 v 1.4331607 h 1.06798 q 0.1757,-0.00345 0.196371,-0.1894804 0.0069,-0.055122 0.0069,-0.106798 z"
         id="path35446" />
      <path
         d="M 20.902826,7.3606546 H 20.255148 L 19.342197,5.4520705 H 18.849548 V 7.3606546 H 18.22254 V 2.9440394 h 1.701878 q 0.33762,0 0.578777,0.2239313 0.241157,0.2239314 0.241157,0.5615509 V 4.763051 q 0,0.4892038 -0.420302,0.6407881 -0.130914,0.048231 -0.289388,0.048231 z M 20.120789,4.6149118 V 3.8432099 q 0,-0.2308216 -0.179145,-0.3341745 -0.05512,-0.034451 -0.127469,-0.031006 h -0.964627 v 1.4331607 h 1.06798 q 0.1757,-0.00345 0.196371,-0.1894804 0.0069,-0.055122 0.0069,-0.106798 z"
         id="path35448" />
      <path
         d="m 24.113658,2.9337041 q 0.158474,0.01378 0.179145,0.065457 0.02067,0.048231 0.0069,0.079237 -0.01378,0.031006 -0.09646,0.213596 -0.07924,0.1825902 -0.223931,0.5098745 Q 23.83805,4.1257079 23.689911,4.4564373 23.545217,4.7837215 23.400523,5.1041156 23.259274,5.4245097 23.131805,5.717343 V 7.3468742 H 22.463456 V 5.717343 Q 22.329097,5.4279548 22.177513,5.1075607 22.029374,4.7871666 21.877789,4.4598824 21.726205,4.129153 21.574621,3.8018687 21.423037,3.4745844 21.336909,3.2885491 21.250782,3.1025139 21.230111,3.0680629 q -0.02067,-0.034451 0,-0.068902 0.04134,-0.082682 0.18259,-0.079237 h 0.406522 l 0.957737,1.9981567 0.895725,-1.9843763 z"
         id="path35450" />
    </g>
    <g
       aria-label="octave"
       id="text2086"
       style="font-size:3.52777px;line-height:1.25;stroke-width:0.264583">
      <path
         d="m 10.366062,32.938959 q -0.254936,0 -0.4030753,0.199815 -0.1481387,0.198092 -0.1481387,0.544324 0,0.346231 0.1464162,0.546046 0.1481388,0.198093 0.4047978,0.198093 0.253214,0 0.401353,-0.199815 0.148139,-0.199815 0.148139,-0.544324 0,-0.342786 -0.148139,-0.542602 -0.148139,-0.201537 -0.401353,-0.201537 z m 0,-0.268717 q 0.413411,0 0.649399,0.268717 0.235989,0.268717 0.235989,0.744139 0,0.473699 -0.235989,0.744139 -0.235988,0.268717 -0.649399,0.268717 -0.4151331,0 -0.6511216,-0.268717 -0.234266,-0.27044 -0.234266,-0.744139 0,-0.475422 0.234266,-0.744139 0.2359885,-0.268717 0.6511216,-0.268717 z"
         id="path5934" />
      <path
         d="m 13.165196,32.79082 v 0.296278 q -0.134358,-0.07407 -0.270439,-0.110243 -0.134359,-0.0379 -0.272162,-0.0379 -0.308336,0 -0.478868,0.19637 -0.170531,0.194647 -0.170531,0.547769 0,0.353121 0.170531,0.549491 0.170532,0.194648 0.478868,0.194648 0.137803,0 0.272162,-0.03617 0.136081,-0.0379 0.270439,-0.111965 v 0.292833 q -0.132636,0.06201 -0.275607,0.09302 -0.141249,0.03101 -0.301445,0.03101 -0.435804,0 -0.692463,-0.273885 -0.256659,-0.273884 -0.256659,-0.738971 0,-0.471977 0.258382,-0.742417 0.260104,-0.270439 0.71141,-0.270439 0.146417,0 0.285943,0.03101 0.139526,0.02928 0.270439,0.08957 z"
         id="path5936" />
      <path
         d="m 14.029913,32.168982 v 0.547769 h 0.652844 v 0.246323 h -0.652844 v 1.047307 q 0,0.235989 0.06373,0.303168 0.06546,0.06718 0.263549,0.06718 h 0.325561 V 34.646 h -0.325561 q -0.366902,0 -0.506428,-0.136081 -0.139526,-0.137804 -0.139526,-0.499538 v -1.047307 h -0.232543 v -0.246323 h 0.232543 v -0.547769 z"
         id="path5938" />
      <path
         d="m 15.976388,33.676208 q -0.384128,0 -0.532266,0.08785 -0.148139,0.08785 -0.148139,0.299723 0,0.168809 0.110243,0.268717 0.111965,0.09819 0.303167,0.09819 0.26355,0 0.422024,-0.186035 0.160196,-0.187757 0.160196,-0.497815 v -0.07062 z m 0.632173,-0.130914 V 34.646 h -0.316948 v -0.292833 q -0.10852,0.1757 -0.270439,0.260105 -0.161919,0.08268 -0.396185,0.08268 -0.296278,0 -0.471977,-0.165365 -0.173977,-0.167086 -0.173977,-0.446138 0,-0.325561 0.21704,-0.490925 0.218763,-0.165365 0.651122,-0.165365 h 0.444416 v -0.03101 q 0,-0.218764 -0.144693,-0.337619 -0.142972,-0.120578 -0.403076,-0.120578 -0.165364,0 -0.322115,0.03962 -0.156752,0.03962 -0.301446,0.118856 V 32.8046 q 0.173977,-0.06718 0.337619,-0.09991 0.163642,-0.03445 0.318671,-0.03445 0.418578,0 0.625283,0.217041 0.206705,0.21704 0.206705,0.658011 z"
         id="path5940" />
      <path
         d="m 17.03403,32.716751 h 0.335896 l 0.60289,1.619191 0.602891,-1.619191 h 0.335896 L 18.188134,34.646 h -0.430636 z"
         id="path5942" />
      <path
         d="m 20.999326,33.602138 v 0.155029 h -1.457272 q 0.02067,0.327284 0.19637,0.499538 0.177422,0.170532 0.492647,0.170532 0.18259,0 0.353122,-0.04479 0.172254,-0.04479 0.341064,-0.134359 v 0.299723 q -0.170532,0.07235 -0.349677,0.110243 -0.179144,0.0379 -0.363457,0.0379 -0.461641,0 -0.732081,-0.268717 -0.268717,-0.268717 -0.268717,-0.726914 0,-0.473699 0.254937,-0.751029 0.256659,-0.279052 0.69074,-0.279052 0.389295,0 0.614948,0.251491 0.227376,0.249769 0.227376,0.680405 z m -0.316948,-0.09302 q -0.0034,-0.260104 -0.146416,-0.415133 -0.141249,-0.155029 -0.375515,-0.155029 -0.265272,0 -0.425468,0.149861 -0.158474,0.149861 -0.18259,0.422023 z"
         id="path5944" />
    </g>
    <g
       aria-label="semitone"
       id="text4004"
       style="font-size:3.52777px;line-height:1.25;stroke-width:0.264583">
      <path
         d="m 8.6142344,51.329224 v 0.299723 q -0.1343584,-0.0689 -0.2790521,-0.103353 -0.1446937,-0.03445 -0.2997227,-0.03445 -0.2359885,0 -0.354844,0.07235 -0.117133,0.07235 -0.117133,0.217041 0,0.110243 0.084405,0.173977 0.084405,0.06201 0.3393412,0.118855 l 0.1085203,0.02412 q 0.3376186,0.07235 0.4788672,0.204983 0.1429712,0.130913 0.1429712,0.366902 0,0.268716 -0.2135955,0.425468 -0.2118729,0.156751 -0.5839424,0.156751 -0.155029,0 -0.3238383,-0.031 -0.1670867,-0.02928 -0.3531215,-0.08957 v -0.327283 q 0.1756995,0.0913 0.3462314,0.137803 0.1705318,0.04479 0.3376186,0.04479 0.2239307,0 0.3445088,-0.07579 0.120578,-0.07751 0.120578,-0.217041 0,-0.129191 -0.08785,-0.198092 -0.086127,-0.0689 -0.3806822,-0.132636 l -0.1102428,-0.02584 q -0.294555,-0.06201 -0.4254684,-0.18948 -0.1309133,-0.129191 -0.1309133,-0.353122 0,-0.272162 0.1929249,-0.420301 0.1929249,-0.148138 0.547769,-0.148138 0.1756995,0 0.3307284,0.02584 0.155029,0.02584 0.2859423,0.07751 z"
         id="path5947" />
      <path
         d="m 10.87249,52.157768 v 0.155029 H 9.4152173 q 0.020671,0.327283 0.1963701,0.499538 0.177422,0.170532 0.4926476,0.170532 0.18259,0 0.353121,-0.04479 0.172255,-0.04479 0.341064,-0.134358 v 0.299723 q -0.170532,0.07235 -0.349676,0.110242 -0.179145,0.0379 -0.363457,0.0379 -0.4616418,0 -0.7320812,-0.268716 -0.2687169,-0.268717 -0.2687169,-0.726914 0,-0.4737 0.2549365,-0.751029 0.2566591,-0.279052 0.6907406,-0.279052 0.389294,0 0.614948,0.251491 0.227376,0.249769 0.227376,0.680405 z m -0.316949,-0.09302 q -0.0034,-0.260105 -0.146416,-0.415133 -0.141248,-0.155029 -0.375514,-0.155029 -0.2652721,0 -0.4254687,0.149861 -0.1584741,0.149861 -0.1825897,0.422023 z"
         id="path5949" />
      <path
         d="m 12.894756,51.642727 q 0.118856,-0.213595 0.28422,-0.315225 0.165364,-0.10163 0.389295,-0.10163 0.301445,0 0.465087,0.211873 0.163642,0.21015 0.163642,0.599445 v 1.16444 h -0.318671 v -1.154105 q 0,-0.277329 -0.09819,-0.411688 -0.09818,-0.134358 -0.299723,-0.134358 -0.246324,0 -0.389295,0.163641 -0.142971,0.163642 -0.142971,0.446139 v 1.090371 h -0.318671 v -1.154105 q 0,-0.279052 -0.09818,-0.411688 -0.09819,-0.134358 -0.303167,-0.134358 -0.242879,0 -0.38585,0.165364 -0.142971,0.163642 -0.142971,0.444416 V 53.20163 H 11.38064 v -1.92925 h 0.318671 v 0.299723 q 0.10852,-0.177422 0.260104,-0.261827 0.151584,-0.0844 0.360012,-0.0844 0.21015,0 0.356566,0.106797 0.148139,0.106798 0.218763,0.310058 z"
         id="path5951" />
      <path
         d="m 14.829173,51.27238 h 0.316948 v 1.92925 h -0.316948 z m 0,-0.751029 h 0.316948 v 0.401353 h -0.316948 z"
         id="path5953" />
      <path
         d="m 16.122804,50.724611 v 0.547769 h 0.652844 v 0.246324 h -0.652844 v 1.047307 q 0,0.235988 0.06373,0.303168 0.06546,0.06718 0.263549,0.06718 h 0.325561 v 0.265272 h -0.325561 q -0.366901,0 -0.506428,-0.136081 -0.139526,-0.137804 -0.139526,-0.499538 V 51.518704 H 15.57159 V 51.27238 h 0.232543 v -0.547769 z"
         id="path5955" />
      <path
         d="m 17.940088,51.494589 q -0.254937,0 -0.403076,0.199815 -0.148138,0.198092 -0.148138,0.544324 0,0.346231 0.146416,0.546046 0.148139,0.198093 0.404798,0.198093 0.253214,0 0.401352,-0.199816 0.148139,-0.199815 0.148139,-0.544323 0,-0.342787 -0.148139,-0.542602 -0.148138,-0.201537 -0.401352,-0.201537 z m 0,-0.268717 q 0.41341,0 0.649399,0.268717 0.235988,0.268716 0.235988,0.744139 0,0.473699 -0.235988,0.744139 -0.235989,0.268716 -0.649399,0.268716 -0.415133,0 -0.651122,-0.268716 -0.234266,-0.27044 -0.234266,-0.744139 0,-0.475423 0.234266,-0.744139 0.235989,-0.268717 0.651122,-0.268717 z"
         id="path5957" />
      <path
         d="m 20.954539,52.03719 v 1.16444 h -0.316948 v -1.154105 q 0,-0.273884 -0.106798,-0.409965 -0.106797,-0.136081 -0.320393,-0.136081 -0.256659,0 -0.404798,0.163641 -0.148138,0.163642 -0.148138,0.446139 v 1.090371 h -0.318671 v -1.92925 h 0.318671 v 0.299723 q 0.113687,-0.173977 0.266994,-0.260104 0.155029,-0.08613 0.356566,-0.08613 0.332451,0 0.502983,0.206705 0.170532,0.204983 0.170532,0.604613 z"
         id="path5959" />
      <path
         d="m 23.236911,52.157768 v 0.155029 h -1.457273 q 0.02067,0.327283 0.19637,0.499538 0.177422,0.170532 0.492648,0.170532 0.18259,0 0.353121,-0.04479 0.172255,-0.04479 0.341064,-0.134358 v 0.299723 q -0.170532,0.07235 -0.349676,0.110242 -0.179145,0.0379 -0.363457,0.0379 -0.461642,0 -0.732081,-0.268716 -0.268717,-0.268717 -0.268717,-0.726914 0,-0.4737 0.254936,-0.751029 0.256659,-0.279052 0.690741,-0.279052 0.389294,0 0.614948,0.251491 0.227376,0.249769 0.227376,0.680405 z m -0.316949,-0.09302 q -0.0034,-0.260105 -0.146416,-0.415133 -0.141248,-0.155029 -0.375514,-0.155029 -0.265272,0 -0.425469,0.149861 -0.158474,0.149861 -0.182589,0.422023 z"
         id="path5961" />
    </g>
  </g>
  <g
     inkscape:groupmode="layer"
     id="layer2"
     inkscape:label="components"
     style="display:inline">
    <circle
       style="display:inline;fill:#ff0000;stroke-width:0.264583"
       id="path736-6-3"
       cx="15.226865"
       cy="42.179569"
       r="5.1400003"
       inkscape:label="octave" />
    <circle
       style="fill:#ff0000;stroke-width:0.264583"
       id="path736-6"
       cx="15.226865"
       cy="60.169571"
       r="5.1400003"
       inkscape:label="pitch" />
    <circle
       style="fill:#0000ff;stroke-width:0.264583"
       id="path569"
       cx="14.844666"
       cy="117.82562"
       r="5.1400003"
       inkscape:label="semitone_output" />
    <circle
       style="fill:#0000ff;stroke-width:0.264583"
       id="path569-3"
       cx="15.078858"
       cy="99.898727"
       r="5.1400003"
       inkscape:label="c4_output" />
    <circle
       style="fill:#00ff00;stroke-width:0.264583"
       id="path736"
       cx="15.397088"
       cy="79.124573"
       r="5.1400003"
       inkscape:label="signal_in" />
  </g>
</svg>
