<?xml version="1.0" encoding="UTF-8" standalone="no"?>
<!-- Created with Inkscape (http://www.inkscape.org/) -->

<svg
   width="25.4mm"
   height="128.5mm"
   viewBox="0 0 25.4 128.5"
   version="1.1"
   id="svg1433"
   inkscape:version="1.1.2 (0a00cf5339, 2022-02-04)"
   sodipodi:docname="test-dark.svg"
   xmlns:inkscape="http://www.inkscape.org/namespaces/inkscape"
   xmlns:sodipodi="http://sodipodi.sourceforge.net/DTD/sodipodi-0.dtd"
   xmlns="http://www.w3.org/2000/svg"
   xmlns:svg="http://www.w3.org/2000/svg">
  <sodipodi:namedview
     id="namedview1435"
     pagecolor="#ffffff"
     bordercolor="#666666"
     borderopacity="1.0"
     inkscape:pageshadow="2"
     inkscape:pageopacity="0.0"
     inkscape:pagecheckerboard="0"
     inkscape:document-units="mm"
     showgrid="true"
     inkscape:zoom="1.0456808"
     inkscape:cx="-23.429713"
     inkscape:cy="222.82135"
     inkscape:window-width="1920"
     inkscape:window-height="1008"
     inkscape:window-x="0"
     inkscape:window-y="0"
     inkscape:window-maximized="1"
     inkscape:current-layer="layer1">
    <inkscape:grid
       type="xygrid"
       id="grid1494"
       spacingx="0.50800001"
       spacingy="2.57"
       units="mm" />
  </sodipodi:namedview>
  <defs
     id="defs1430" />
  <g
     inkscape:label="Calque 1"
     inkscape:groupmode="layer"
     id="layer1">
    <rect
       style="fill:#000000;stroke-width:0.264583"
       id="rect1518"
       width="25.4"
       height="128.5"
       x="0"
       y="0" />
    <g
       aria-label="QUINTE"
       id="text5427"
       style="font-weight:bold;font-size:4.23333px;line-height:1.25;font-family:'FiraCode Nerd Font Mono';-inkscape-font-specification:'FiraCode Nerd Font Mono Bold';stroke-width:0.264583;fill:#ffffff">
      <path
         d="m 7.4246354,98.999396 q 0,0.295248 -0.058615,0.55576 -0.058615,0.258342 -0.1975554,0.458064 -0.13894,0.19973 -0.3777433,0.3213 0.2366323,0.0391 0.4037946,0.11723 0.1693332,0.076 0.2865638,0.21927 0.1194016,0.14545 0.2018973,0.3886 l -0.5818115,0.19755 q -0.095521,-0.22578 -0.2062391,-0.37991 -0.1107179,-0.15414 -0.2778801,-0.23229 -0.1649913,-0.0782 -0.4276749,-0.0782 -0.5644439,0 -0.8423241,-0.41682 -0.2757091,-0.418988 -0.2757091,-1.150594 0,-0.477606 0.1280853,-0.831469 0.1302563,-0.353863 0.3907689,-0.549248 0.2626836,-0.197555 0.6556234,-0.197555 0.3951108,0 0.6556234,0.191042 0.2626835,0.191043 0.3929398,0.544906 0.1302563,0.353863 0.1302563,0.842324 z m -0.7424609,0 q 0,-0.551418 -0.089008,-0.803247 -0.089009,-0.251829 -0.3473502,-0.251829 -0.2539998,0 -0.3473501,0.254 -0.091179,0.251829 -0.091179,0.801076 0,0.551418 0.09335,0.805418 0.095521,0.253996 0.3451792,0.253996 0.2605126,0 0.3473502,-0.253996 0.089008,-0.256171 0.089008,-0.805418 z"
         id="path27791"
         style="fill:#ffffff" />
      <path
         d="m 9.9581142,97.497107 v 2.001605 q 0,0.308273 -0.1259144,0.553588 -0.1237435,0.24315 -0.3734014,0.38643 -0.247487,0.14111 -0.6208884,0.14111 -0.3755723,0 -0.6252303,-0.13677 Q 7.9651928,100.3063 7.8414493,100.06316 7.7177058,99.820011 7.7177058,99.498712 v -2.001605 h 0.7142387 v 1.73675 q 0,0.405966 0.073812,0.612205 0.073812,0.204068 0.3321536,0.204068 0.2583417,0 0.3321536,-0.204068 0.073812,-0.206239 0.073812,-0.612205 v -1.73675 z"
         id="path27793"
         style="fill:#ffffff" />
      <path
         d="m 12.419952,97.497107 v 0.521025 h -0.620888 v 1.964699 h 0.620888 v 0.523199 h -1.953845 v -0.523199 h 0.620889 v -1.964699 h -0.620889 v -0.521025 z"
         id="path27795"
         style="fill:#ffffff" />
      <path
         d="m 14.260901,100.50603 -0.792392,-2.420599 q 0.01954,0.128085 0.04559,0.329983 0.02605,0.199726 0.04342,0.445042 0.01954,0.245316 0.01954,0.51017 v 1.135404 h -0.605692 v -3.008923 h 0.887914 l 0.768512,2.40757 q -0.03473,-0.206239 -0.07164,-0.527538 -0.03691,-0.321299 -0.03691,-0.727264 v -1.152768 h 0.605692 v 3.008923 z"
         id="path27797"
         style="fill:#ffffff" />
      <path
         d="m 17.004961,98.042012 v 2.464018 h -0.712068 v -2.464018 h -0.844495 v -0.544905 h 2.435793 l -0.07381,0.544905 z"
         id="path27799"
         style="fill:#ffffff" />
      <path
         d="m 19.071688,98.005106 v 0.722923 h 1.042051 v 0.499316 h -1.042051 v 0.768512 h 1.256973 v 0.510173 H 18.35962 v -3.008923 h 1.96687 l -0.07164,0.507999 z"
         id="path27801"
         style="fill:#ffffff" />
    </g>
    <g
       aria-label="C4"
       id="text15955"
       style="font-weight:bold;font-size:4.93889px;line-height:1.25;font-family:'FiraCode Nerd Font Mono';-inkscape-font-specification:'FiraCode Nerd Font Mono Bold';stroke-width:0.264583;fill:#ffffff">
      <path
         d="m 11.505805,57.878596 q 0.377382,0 0.640789,0.10131 0.26594,0.09878 0.486291,0.281137 l -0.407775,0.491356 q -0.144368,-0.11904 -0.319129,-0.187424 -0.17476,-0.07092 -0.379914,-0.07092 -0.220351,0 -0.40271,0.126639 -0.182359,0.124105 -0.291268,0.395111 -0.108908,0.268473 -0.108908,0.699043 0,0.633191 0.227948,0.921926 0.230482,0.286202 0.590134,0.286202 0.263408,0 0.438169,-0.09878 0.17476,-0.09878 0.321661,-0.215285 l 0.377381,0.481226 q -0.197555,0.195022 -0.48629,0.334324 -0.288735,0.139302 -0.69651,0.139302 -0.47616,0 -0.845944,-0.210219 -0.36725,-0.212752 -0.57747,-0.62306 -0.2076864,-0.41284 -0.2076864,-1.015638 0,-0.587602 0.2152854,-0.997909 0.217817,-0.410308 0.590134,-0.62306 0.372316,-0.215285 0.835812,-0.215285 z"
         id="path27786"
         style="fill:#ffffff" />
      <path
         d="m 15.183371,59.294411 v 0.845943 h 0.352054 v 0.600265 h -0.352054 v 0.737035 h -0.767428 l -0.0051,-0.737035 h -1.453807 v -0.53188 l 0.975115,-2.330143 0.681313,0.250743 -0.830747,2.011015 h 0.630659 l 0.09371,-0.845943 z"
         id="path27788"
         style="fill:#ffffff" />
    </g>
  </g>
  <g
     inkscape:groupmode="layer"
     id="layer2"
     inkscape:label="components"
     style="display:none">
    <circle
       style="display:inline;fill:#0000ff;stroke-width:0.264583"
       id="path569-3"
       cx="12.7"
       cy="69.268303"
       r="5.1400003"
       inkscape:label="c4_output" />
    <circle
       style="display:inline;fill:#0000ff;stroke-width:0.264583"
       id="path569"
       cx="12.7"
       cy="108.80292"
       r="5.1400003"
       inkscape:label="semitone_output" />
  </g>
</svg>
